<?xml version="1.0" encoding="UTF-8"?>
<svg id="Layer_1" data-name="Layer 1" xmlns="http://www.w3.org/2000/svg" viewBox="0 0 566.93 566.93">
  <defs>
    <style>
      .cls-1 {
        fill: transparent;
      }

      .cls-2 {
        fill: #fff;
      }

      .cls-3 {
        fill: #9cb92d;
      }
    </style>
  </defs>
  <rect class="cls-1" y="-16.13" width="566.93" height="593.76"/>
  <g>
    <g>
      <path class="cls-2" d="M134.27,359.36v-1.33c.86,0,1.42-.13,1.7-.4,.28-.27,.42-.8,.42-1.59v-9.64c0-.77-.13-1.29-.4-1.57s-.84-.42-1.73-.42v-1.32l1.96-.07c1.97-.08,3.51-.12,4.63-.12,1.87,0,3.39,.11,4.57,.32s2.28,.69,3.32,1.42,1.85,1.68,2.41,2.84c.56,1.16,.85,2.45,.85,3.85s-.3,2.71-.89,3.84c-.6,1.13-1.4,2.03-2.41,2.7-1.01,.67-2.05,1.09-3.13,1.25s-2.9,.24-5.45,.24h-5.86Zm6.38-15v11.21c0,.72,.03,1.2,.1,1.45s.25,.46,.54,.64c.29,.18,.74,.26,1.35,.26,1.5,0,2.63-.55,3.38-1.66,.75-1.1,1.12-2.76,1.12-4.96,0-1.78-.28-3.19-.83-4.24-.55-1.05-1.27-1.77-2.15-2.14s-2.05-.56-3.52-.56Z"/>
      <path class="cls-2" d="M161.79,351.58v4.02c0,.77,.04,1.27,.13,1.51,.09,.24,.32,.43,.71,.59,.38,.16,.97,.23,1.75,.23,1.06,0,1.85-.13,2.35-.4,.5-.26,.95-.73,1.34-1.39,.4-.66,.68-1.37,.86-2.12h1.34l-.11,5.34h-14.88v-1.33h.3c.81,0,1.33-.15,1.58-.45s.37-.81,.37-1.54v-9.65c0-.74-.13-1.26-.38-1.55-.25-.29-.77-.44-1.57-.44h-.3v-1.31h13.86l.24,4.21h-1.34c-.24-.74-.51-1.32-.8-1.76-.3-.44-.59-.72-.89-.84-.3-.12-.81-.19-1.52-.19h-3.04v5.62h1.51c.72,0,1.2-.14,1.43-.41,.24-.27,.37-.81,.4-1.61h1.36v5.52h-1.36c0-.1,.01-.18,.01-.23,0-.46-.1-.88-.29-1.26-.2-.38-.7-.56-1.51-.56h-1.56Z"/>
      <path class="cls-2" d="M183.57,350.71c1.6,.29,2.8,.8,3.6,1.53,.8,.73,1.2,1.69,1.2,2.86,0,1.32-.51,2.36-1.54,3.12-1.02,.76-2.72,1.14-5.1,1.14h-8.53v-1.33c.86,0,1.42-.13,1.7-.4,.28-.27,.42-.8,.42-1.59v-9.54c0-.77-.13-1.29-.4-1.57-.26-.28-.84-.42-1.73-.42v-1.33l6.25-.18h.89c2.82,0,4.74,.35,5.76,1.05,1.02,.7,1.54,1.65,1.54,2.86,0,.91-.34,1.68-1.01,2.32s-1.69,1.13-3.05,1.49Zm-3.98-.7h.83c.88,0,1.54-.21,1.97-.62s.65-1.13,.65-2.14c0-.76-.14-1.36-.41-1.8-.27-.44-.63-.72-1.07-.85-.44-.13-1.1-.19-1.96-.19v5.6Zm0,1.46v4.62c0,.45,.05,.79,.14,1.02,.09,.23,.27,.43,.54,.58s.65,.23,1.13,.23c.76,0,1.33-.27,1.71-.8,.38-.54,.57-1.34,.57-2.41,0-.86-.12-1.53-.37-2.01-.25-.48-.59-.81-1.02-.98s-1.07-.25-1.92-.25h-.78Z"/>
      <path class="cls-2" d="M191.61,344.42v-1.33h8.6v1.33h-.25c-.81,0-1.33,.15-1.58,.45s-.37,.81-.37,1.54v9.62c0,.74,.13,1.26,.38,1.55,.25,.29,.77,.44,1.57,.44h.25v1.33h-8.6v-1.33c.86,0,1.44-.13,1.72-.4,.28-.26,.43-.8,.43-1.6v-9.62c0-.78-.13-1.3-.4-1.58s-.85-.41-1.75-.41Z"/>
      <path class="cls-2" d="M219.25,353.11v6.11h-1.33c-.15-.65-.38-1.17-.68-1.56-1.35,1.36-3.14,2.04-5.35,2.04-2.52,0-4.54-.82-6.05-2.47-1.51-1.65-2.27-3.6-2.27-5.87s.75-4.22,2.24-5.95c1.5-1.74,3.56-2.6,6.2-2.6,1.98,0,3.65,.65,5.03,1.96,.18-.41,.35-.89,.5-1.45h1.32l.17,6.01h-1.32c-.39-1.63-1.03-2.87-1.93-3.7-.89-.84-1.95-1.25-3.17-1.25-1.41,0-2.47,.55-3.18,1.66s-1.07,2.83-1.07,5.17c0,1.65,.13,2.95,.38,3.92,.26,.96,.76,1.71,1.52,2.23,.76,.52,1.58,.78,2.48,.78,1.18,0,2.24-.41,3.17-1.24,.93-.82,1.6-2.08,2-3.77h1.33Z"/>
      <path class="cls-2" d="M229.34,352.18v3.85c0,.74,.13,1.26,.38,1.55,.26,.29,.78,.44,1.57,.44h.29v1.33h-8.77v-1.33h.32c.82,0,1.35-.15,1.59-.45s.37-.81,.37-1.54v-9.62c0-.74-.13-1.26-.38-1.55-.26-.29-.78-.44-1.57-.44h-.32v-1.33h6.53s1.46-.02,1.46-.02c1.45,0,2.51,.05,3.17,.14,.67,.1,1.33,.33,1.97,.69,.65,.36,1.16,.86,1.53,1.49s.56,1.31,.56,2.04c0,1.94-1.1,3.26-3.29,3.97,.58,.37,1.49,1.52,2.72,3.46,.96,1.5,1.64,2.4,2.05,2.71s.86,.46,1.34,.46v1.33h-5.09c-.46-.55-1.32-1.95-2.58-4.2-.63-1.14-1.08-1.87-1.33-2.2s-.52-.54-.79-.63-.85-.14-1.75-.15Zm0-1.46c1.35,.02,2.26-.07,2.74-.25,.47-.18,.84-.5,1.12-.97,.27-.47,.41-1.1,.41-1.9,0-1.14-.27-1.94-.81-2.38-.54-.44-1.47-.66-2.79-.66-.17,0-.39,0-.66,.01v6.14Z"/>
      <path class="cls-2" d="M249.29,351.58v4.02c0,.77,.04,1.27,.13,1.51,.09,.24,.32,.43,.71,.59,.38,.16,.97,.23,1.75,.23,1.06,0,1.85-.13,2.35-.4,.5-.26,.95-.73,1.34-1.39,.4-.66,.68-1.37,.86-2.12h1.34l-.11,5.34h-14.88v-1.33h.3c.81,0,1.33-.15,1.58-.45s.37-.81,.37-1.54v-9.65c0-.74-.13-1.26-.38-1.55-.25-.29-.77-.44-1.57-.44h-.3v-1.31h13.86l.24,4.21h-1.34c-.24-.74-.51-1.32-.8-1.76-.3-.44-.59-.72-.89-.84-.3-.12-.81-.19-1.52-.19h-3.04v5.62h1.51c.72,0,1.2-.14,1.43-.41,.24-.27,.37-.81,.4-1.61h1.36v5.52h-1.36c0-.1,.01-.18,.01-.23,0-.46-.1-.88-.29-1.26-.2-.38-.7-.56-1.51-.56h-1.56Z"/>
      <path class="cls-2" d="M260.81,359.36v-1.33c.86,0,1.42-.13,1.7-.4,.28-.27,.42-.8,.42-1.59v-9.64c0-.77-.13-1.29-.4-1.57s-.84-.42-1.73-.42v-1.32l1.96-.07c1.97-.08,3.51-.12,4.63-.12,1.87,0,3.39,.11,4.57,.32s2.28,.69,3.32,1.42,1.85,1.68,2.41,2.84c.56,1.16,.85,2.45,.85,3.85s-.3,2.71-.89,3.84c-.6,1.13-1.4,2.03-2.41,2.7-1.01,.67-2.05,1.09-3.13,1.25s-2.9,.24-5.45,.24h-5.86Zm6.38-15v11.21c0,.72,.03,1.2,.1,1.45s.25,.46,.54,.64c.29,.18,.74,.26,1.35,.26,1.5,0,2.63-.55,3.38-1.66,.75-1.1,1.12-2.76,1.12-4.96,0-1.78-.28-3.19-.83-4.24-.55-1.05-1.27-1.77-2.15-2.14s-2.05-.56-3.52-.56Z"/>
      <path class="cls-2" d="M292.73,354.97l-.31,.8c-.22,.57-.34,.97-.34,1.2,0,.39,.13,.67,.4,.82s.7,.23,1.3,.23v1.33h-5.38v-1.33c1.02,0,1.88-.87,2.58-2.62l5-12.61h1.4l5.1,12.6c.5,1.25,.96,2,1.37,2.25,.41,.25,.8,.38,1.18,.38v1.33h-8.08v-1.33c.73,0,1.18-.07,1.36-.21,.18-.14,.26-.32,.26-.53,0-.19-.07-.44-.22-.76l-.16-.37-.47-1.19h-5Zm.52-1.38h3.95l-2.03-4.86-1.92,4.86Z"/>
      <path class="cls-2" d="M322.34,353.11v6.11h-1.33c-.15-.65-.38-1.17-.68-1.56-1.35,1.36-3.14,2.04-5.35,2.04-2.52,0-4.54-.82-6.05-2.47s-2.27-3.6-2.27-5.87,.75-4.22,2.24-5.95c1.5-1.74,3.56-2.6,6.2-2.6,1.98,0,3.65,.65,5.03,1.96,.18-.41,.35-.89,.5-1.45h1.32l.17,6.01h-1.32c-.39-1.63-1.03-2.87-1.93-3.7-.89-.84-1.95-1.25-3.17-1.25-1.41,0-2.47,.55-3.18,1.66s-1.07,2.83-1.07,5.17c0,1.65,.13,2.95,.38,3.92,.26,.96,.76,1.71,1.52,2.23,.76,.52,1.58,.78,2.48,.78,1.18,0,2.24-.41,3.17-1.24,.93-.82,1.6-2.08,2-3.77h1.33Z"/>
      <path class="cls-2" d="M325.83,344.42v-1.33h8.59v1.33h-.28c-.81,0-1.33,.15-1.57,.44-.24,.3-.36,.81-.36,1.55v6.42c0,1.17,.1,2.09,.29,2.76,.19,.67,.61,1.24,1.26,1.72,.65,.47,1.42,.71,2.33,.71,.98,0,1.83-.25,2.53-.76,.7-.5,1.15-1.12,1.36-1.84s.31-1.73,.31-3.03v-5.47c0-1.66-.8-2.5-2.41-2.5v-1.33h6.02v1.33c-.34,0-.7,.1-1.08,.29-.38,.2-.64,.47-.78,.82-.14,.35-.22,.83-.22,1.46v5.44c0,1.17-.07,2.12-.22,2.86s-.5,1.45-1.05,2.14-1.32,1.23-2.3,1.65-2.08,.62-3.28,.62-2.38-.21-3.38-.62-1.76-.93-2.29-1.56-.89-1.31-1.07-2.05c-.19-.74-.28-1.62-.28-2.63v-6.42c0-.77-.13-1.29-.4-1.57-.26-.28-.84-.42-1.73-.42Z"/>
      <path class="cls-2" d="M356.03,359.36l-6.05-12.68v8.41c0,.75,.05,1.31,.16,1.66s.35,.66,.73,.91c.38,.25,.84,.37,1.39,.37v1.33h-5.86v-1.33c.51,0,.96-.13,1.33-.4s.61-.58,.69-.92c.08-.35,.13-.91,.13-1.67v-8.56c0-.82-.14-1.36-.43-1.64-.28-.28-.86-.41-1.72-.41v-1.33h6.52l5.02,10.69,5.06-10.69h6.54v1.33h-.32c-.82,0-1.35,.15-1.59,.45-.24,.3-.37,.81-.37,1.54v9.62c0,.74,.13,1.26,.38,1.55,.25,.29,.78,.44,1.58,.44h.37v1.33h-8.86v-1.33h.32c.81,0,1.33-.15,1.58-.45,.24-.3,.37-.81,.37-1.54v-9.56l-6.02,12.89h-.94Z"/>
      <path class="cls-2" d="M378.7,351.58v4.02c0,.77,.04,1.27,.13,1.51,.09,.24,.32,.43,.71,.59,.38,.16,.97,.23,1.75,.23,1.06,0,1.85-.13,2.35-.4,.5-.26,.95-.73,1.34-1.39,.4-.66,.68-1.37,.86-2.12h1.34l-.11,5.34h-14.88v-1.33h.3c.81,0,1.33-.15,1.58-.45s.37-.81,.37-1.54v-9.65c0-.74-.13-1.26-.38-1.55-.25-.29-.77-.44-1.57-.44h-.3v-1.31h13.86l.24,4.21h-1.34c-.24-.74-.51-1.32-.8-1.76-.3-.44-.59-.72-.89-.84-.3-.12-.81-.19-1.52-.19h-3.04v5.62h1.51c.72,0,1.2-.14,1.43-.41,.24-.27,.37-.81,.4-1.61h1.36v5.52h-1.36c0-.1,.01-.18,.01-.23,0-.46-.1-.88-.29-1.26-.2-.38-.7-.56-1.51-.56h-1.56Z"/>
      <path class="cls-2" d="M393.93,347.72v7.48c0,1.2,.22,1.97,.65,2.32,.44,.34,.99,.52,1.67,.52v1.33h-6.11v-1.33c.52,0,.97-.13,1.36-.38,.38-.25,.63-.54,.73-.88,.1-.33,.16-.85,.16-1.57v-8.3c0-1.66-.78-2.48-2.33-2.48v-1.33h5.5l8.92,9.96v-5.96c0-1.78-.75-2.66-2.24-2.66v-1.33h5.84v1.33c-.41,0-.79,.11-1.15,.34-.36,.22-.6,.51-.73,.86-.13,.35-.19,.85-.19,1.52v12.49h-1.54l-10.55-11.9Z"/>
      <path class="cls-2" d="M433.24,353.95l-.07,5.41h-14.83v-1.33h.24c.82,0,1.35-.15,1.59-.45,.24-.3,.37-.81,.37-1.54v-9.62c0-.74-.13-1.26-.38-1.55-.26-.29-.78-.44-1.57-.44h-.24v-1.33h8.72v1.33h-.32c-.82,0-1.35,.15-1.59,.45-.24,.3-.37,.81-.37,1.54v9.29c0,.7,.04,1.16,.12,1.38,.08,.22,.29,.42,.63,.58,.34,.16,.93,.25,1.78,.25,1.42,0,2.49-.36,3.19-1.07,.7-.72,1.18-1.68,1.44-2.89h1.3Z"/>
      <path class="cls-2" d="M450.33,353.95l-.07,5.41h-14.83v-1.33h.24c.82,0,1.35-.15,1.59-.45,.24-.3,.37-.81,.37-1.54v-9.62c0-.74-.13-1.26-.38-1.55-.26-.29-.78-.44-1.57-.44h-.24v-1.33h8.72v1.33h-.32c-.82,0-1.35,.15-1.59,.45-.24,.3-.37,.81-.37,1.54v9.29c0,.7,.04,1.16,.12,1.38,.08,.22,.29,.42,.63,.58,.34,.16,.93,.25,1.78,.25,1.42,0,2.49-.36,3.19-1.07,.7-.72,1.18-1.68,1.44-2.89h1.3Z"/>
      <path class="cls-2" d="M458.94,352.16v3.88c0,.74,.13,1.26,.38,1.55,.25,.29,.78,.44,1.58,.44h.37v1.33h-8.82v-1.33h.29c.81,0,1.33-.15,1.58-.45s.37-.81,.37-1.54v-9.62c0-.74-.13-1.26-.38-1.55-.25-.29-.77-.44-1.57-.44h-.4v-1.33l6.6-.14c1.65,0,2.92,.04,3.82,.13,.9,.09,1.73,.33,2.48,.73,.75,.4,1.32,.93,1.7,1.59,.38,.66,.57,1.38,.57,2.17,0,1.06-.33,1.97-.99,2.73-.66,.76-1.48,1.26-2.47,1.5-.99,.24-2.29,.37-3.91,.37h-1.2Zm0-1.44h.79c1.27,0,2.12-.28,2.54-.83,.42-.56,.64-1.3,.64-2.23,0-.83-.16-1.51-.47-2.02s-.71-.85-1.19-1.01-1.25-.23-2.32-.23v6.32Z"/>
    </g>
    <g>
      <path class="cls-2" d="M181.46,379.19h-5.57l-.38,.93c-.56,1.35-.84,2.23-.84,2.64,0,.44,.15,.77,.45,1,.3,.23,.68,.34,1.15,.34v.5h-4.36v-.5c.65-.1,1.13-.33,1.45-.69,.32-.36,.7-1.11,1.15-2.25,.04-.11,.21-.53,.52-1.25l4.26-10.17h.42l4.9,11.64,.67,1.54c.15,.35,.35,.62,.61,.82s.64,.32,1.15,.37v.5h-5.76v-.5c.71,0,1.18-.05,1.43-.16,.25-.1,.37-.31,.37-.62,0-.16-.17-.63-.5-1.42l-1.12-2.71Zm-.18-.49l-2.59-6.25-2.58,6.25h5.18Z"/>
      <path class="cls-2" d="M196.69,382.43h.48c-.49,1.68-1.72,2.52-3.68,2.52-1.26,0-2.32-.43-3.18-1.29-.86-.86-1.29-1.99-1.29-3.41s.47-2.62,1.4-3.52c.93-.9,2.03-1.35,3.3-1.35,.76,0,1.47,.17,2.11,.5,.64,.33,.96,.74,.96,1.23,0,.18-.06,.35-.18,.51s-.29,.24-.51,.24c-.48,0-.77-.28-.88-.83-.09-.42-.22-.71-.4-.88-.19-.17-.55-.25-1.09-.25-.97,0-1.69,.34-2.18,1.01s-.73,1.68-.73,3.03,.26,2.48,.78,3.26c.52,.79,1.31,1.18,2.37,1.18,1.43,0,2.33-.65,2.72-1.95Z"/>
      <path class="cls-2" d="M207.47,382.43h.48c-.49,1.68-1.72,2.52-3.68,2.52-1.26,0-2.32-.43-3.18-1.29-.86-.86-1.29-1.99-1.29-3.41s.47-2.62,1.4-3.52c.93-.9,2.03-1.35,3.3-1.35,.76,0,1.47,.17,2.11,.5,.64,.33,.96,.74,.96,1.23,0,.18-.06,.35-.18,.51s-.29,.24-.51,.24c-.48,0-.77-.28-.88-.83-.09-.42-.22-.71-.4-.88-.19-.17-.55-.25-1.09-.25-.97,0-1.69,.34-2.18,1.01s-.73,1.68-.73,3.03,.26,2.48,.78,3.26c.52,.79,1.31,1.18,2.37,1.18,1.43,0,2.33-.65,2.72-1.95Z"/>
      <path class="cls-2" d="M210.62,380.15c0-1.35,.45-2.49,1.36-3.4,.91-.91,2.02-1.37,3.35-1.37s2.45,.46,3.36,1.37c.91,.91,1.36,2.05,1.36,3.39,0,1.49-.46,2.66-1.38,3.52-.92,.85-2.04,1.28-3.34,1.28s-2.42-.43-3.33-1.3c-.92-.87-1.38-2.03-1.38-3.5Zm1.79,.05c0,1.57,.26,2.67,.77,3.3,.51,.63,1.23,.95,2.15,.95s1.67-.31,2.17-.95c.5-.63,.75-1.73,.75-3.3s-.25-2.67-.75-3.33c-.5-.66-1.22-.99-2.17-.99s-1.67,.33-2.17,.99c-.5,.66-.75,1.77-.75,3.33Z"/>
      <path class="cls-2" d="M231.81,375.74v5.8c0,.97,.01,1.57,.04,1.82,.03,.25,.13,.43,.32,.55,.18,.12,.51,.18,.99,.18v.5c-1.1,.01-1.9,.13-2.4,.35h-.13c-.23-.4-.35-1.08-.37-2.05-.44,.68-.94,1.2-1.51,1.55s-1.19,.52-1.87,.52c-.59,0-1.11-.14-1.57-.41-.45-.27-.77-.6-.93-.99-.17-.39-.25-.98-.25-1.76v-3.02c0-1.02-.02-1.65-.05-1.88-.04-.23-.15-.39-.34-.5s-.54-.16-1.05-.16v-.5h3.01v6.14c0,.61,.04,1.04,.11,1.32,.07,.27,.26,.51,.55,.72,.3,.21,.64,.31,1.03,.31,.56,0,1.09-.18,1.59-.55s.85-.75,1.03-1.16c.18-.41,.28-.99,.28-1.75v-2c0-.97-.01-1.55-.03-1.76s-.11-.39-.28-.55-.5-.23-1.01-.23h-.23v-.5h3.09Z"/>
      <path class="cls-2" d="M238.1,375.38h.29c.17,.45,.26,1.06,.28,1.83,.52-.61,1.06-1.07,1.63-1.37,.57-.3,1.16-.45,1.78-.45,.71,0,1.29,.15,1.74,.44s.74,.66,.87,1.09c.13,.43,.19,1.05,.19,1.88v2.77c0,1.02,.02,1.65,.05,1.87,.04,.22,.15,.39,.34,.5s.54,.17,1.05,.17v.5h-4.53v-.5h.21c.52,0,.86-.08,1.02-.23,.16-.15,.25-.33,.27-.53,.02-.2,.03-.8,.03-1.78v-2.85c0-.7-.03-1.2-.1-1.5-.07-.3-.25-.56-.55-.79s-.68-.35-1.14-.35c-.53,0-1.03,.16-1.51,.47-.48,.31-.93,.78-1.36,1.41v3.61c0,1.02,.02,1.65,.06,1.87,.04,.22,.16,.39,.35,.5s.55,.17,1.06,.17v.5h-4.47v-.5c.5,0,.84-.05,1.04-.15,.19-.1,.31-.25,.36-.46,.05-.21,.07-.85,.07-1.93v-2.64c0-1.03-.02-1.66-.06-1.87-.04-.22-.16-.39-.35-.5-.19-.11-.55-.17-1.06-.17v-.5c.79-.09,1.6-.25,2.43-.5Z"/>
      <path class="cls-2" d="M254.22,376.24h-2.67v5.35c0,.82,.04,1.37,.11,1.66,.07,.28,.22,.51,.46,.69s.48,.26,.75,.26c.52,0,.97-.3,1.35-.89l.35,.21c-.22,.48-.55,.83-.99,1.08-.44,.24-.88,.36-1.32,.36-.52,0-.98-.15-1.37-.46-.39-.31-.64-.67-.73-1.08-.1-.41-.15-1.13-.15-2.16v-5.02h-1.29v-.5c.59-.01,1.12-.26,1.59-.75,.47-.48,.77-1.16,.9-2.03h.35v2.78h2.67v.5Z"/>
      <path class="cls-2" d="M259.49,375.38v6.17c0,.94,.01,1.54,.04,1.78,.03,.25,.13,.43,.31,.56,.18,.13,.5,.19,.96,.19h.23v.5h-4.77v-.5h.37c.51,0,.84-.07,1-.22,.16-.15,.25-.32,.27-.53,.02-.21,.04-.8,.04-1.79v-2.68c0-1.04-.05-1.67-.15-1.9-.1-.23-.23-.37-.39-.43s-.45-.09-.85-.09h-.29v-.5c1.28-.13,2.28-.32,2.98-.57h.24Zm-2.09-4.52c0-.31,.11-.58,.33-.8,.22-.22,.48-.34,.79-.34s.57,.11,.79,.34c.22,.22,.32,.49,.32,.8s-.11,.59-.32,.81c-.22,.22-.48,.34-.79,.34s-.57-.11-.79-.34c-.22-.22-.33-.49-.33-.81Z"/>
      <path class="cls-2" d="M265.84,375.38h.29c.17,.45,.26,1.06,.28,1.83,.52-.61,1.06-1.07,1.63-1.37,.57-.3,1.16-.45,1.78-.45,.71,0,1.29,.15,1.74,.44s.74,.66,.87,1.09c.13,.43,.19,1.05,.19,1.88v2.77c0,1.02,.02,1.65,.05,1.87,.04,.22,.15,.39,.34,.5s.54,.17,1.05,.17v.5h-4.53v-.5h.21c.52,0,.86-.08,1.02-.23,.16-.15,.25-.33,.27-.53,.02-.2,.03-.8,.03-1.78v-2.85c0-.7-.03-1.2-.1-1.5-.07-.3-.25-.56-.55-.79s-.68-.35-1.14-.35c-.53,0-1.03,.16-1.51,.47-.48,.31-.93,.78-1.36,1.41v3.61c0,1.02,.02,1.65,.06,1.87,.04,.22,.16,.39,.35,.5s.55,.17,1.06,.17v.5h-4.47v-.5c.5,0,.84-.05,1.04-.15,.19-.1,.31-.25,.36-.46,.05-.21,.07-.85,.07-1.93v-2.64c0-1.03-.02-1.66-.06-1.87-.04-.22-.16-.39-.35-.5-.19-.11-.55-.17-1.06-.17v-.5c.79-.09,1.6-.25,2.43-.5Z"/>
      <path class="cls-2" d="M283.46,376.52c.61-.69,1.23-1.04,1.86-1.04,.35,0,.61,.09,.81,.28s.29,.39,.29,.62c0,.48-.22,.71-.65,.71-.24,0-.44-.15-.62-.44-.16-.27-.32-.41-.5-.41-.27,0-.58,.19-.91,.56,.37,.59,.56,1.22,.56,1.88,0,.86-.31,1.63-.93,2.29-.62,.67-1.66,1.03-3.13,1.08-1.53,.05-2.29,.36-2.29,.93,0,.27,.17,.45,.52,.56,.34,.11,1.05,.2,2.14,.26,1.19,.06,2.1,.17,2.75,.33s1.15,.49,1.54,.98c.38,.49,.57,1.07,.57,1.75,0,.95-.39,1.72-1.17,2.3-.78,.58-1.9,.88-3.36,.88-1.34,0-2.41-.26-3.22-.78s-1.21-1.17-1.21-1.97c0-.44,.11-.8,.35-1.08,.23-.28,.56-.42,.98-.42,.12,0,.22,.02,.31,.05-.45,.49-.67,1.01-.67,1.56,0,.63,.3,1.16,.89,1.57,.59,.41,1.48,.62,2.66,.62,1.05,0,1.87-.21,2.46-.63,.59-.42,.88-.96,.88-1.62,0-.72-.26-1.23-.79-1.52-.53-.29-1.46-.46-2.81-.52-1.55-.06-2.55-.26-3.02-.57-.46-.31-.69-.71-.69-1.2,0-.94,.66-1.54,1.98-1.78-.68-.4-1.2-.87-1.55-1.38-.35-.52-.52-1.1-.52-1.74,0-.9,.35-1.67,1.06-2.3,.71-.63,1.55-.95,2.52-.95,1.2,0,2.17,.38,2.9,1.14Zm-4.86,2.36c0,.93,.19,1.61,.57,2.04,.38,.43,.87,.65,1.46,.65,.55,0,1.02-.21,1.41-.64,.39-.43,.59-1.17,.59-2.23s-.21-1.8-.63-2.21c-.42-.4-.89-.61-1.42-.61-.66,0-1.16,.25-1.49,.75-.33,.5-.5,1.25-.5,2.25Z"/>
      <path class="cls-2" d="M304.19,382.97h.4c-.06,1.23-.67,1.85-1.82,1.85-.49,0-.88-.13-1.16-.39s-.47-.64-.56-1.16c-.72,.51-1.38,.9-1.97,1.16s-1.13,.39-1.59,.39c-.6,0-1.11-.17-1.55-.52-.43-.35-.65-.8-.65-1.37,0-.74,.36-1.39,1.09-1.95,.72-.55,1.72-1.09,3-1.62l1.68-.68v-.43c0-.61-.04-1.06-.12-1.33-.08-.27-.29-.52-.62-.73-.33-.22-.77-.32-1.31-.32-1.08,0-1.68,.36-1.81,1.08-.11,.73-.42,1.1-.91,1.1-.44,0-.66-.21-.66-.63s.29-.85,.88-1.32,1.49-.71,2.72-.71c.91,0,1.62,.14,2.13,.43s.84,.62,1,.98c.16,.37,.24,.93,.24,1.69v3.58c0,.84,.04,1.37,.13,1.61,.09,.24,.27,.36,.56,.36,.48,0,.77-.35,.89-1.06Zm-3.13-3.78l-1.18,.48c-1.86,.76-2.79,1.71-2.79,2.85,0,.45,.12,.82,.36,1.1,.24,.28,.55,.42,.93,.42,.34,0,.73-.11,1.18-.33,.45-.22,.95-.56,1.5-1.01v-3.5Z"/>
      <path class="cls-2" d="M309.2,375.38h.29c.17,.45,.26,1.06,.28,1.83,.52-.61,1.06-1.07,1.63-1.37,.57-.3,1.16-.45,1.78-.45,.71,0,1.29,.15,1.74,.44s.74,.66,.87,1.09c.13,.43,.19,1.05,.19,1.88v2.77c0,1.02,.02,1.65,.05,1.87,.04,.22,.15,.39,.34,.5s.54,.17,1.05,.17v.5h-4.53v-.5h.21c.52,0,.86-.08,1.02-.23,.16-.15,.25-.33,.27-.53,.02-.2,.03-.8,.03-1.78v-2.85c0-.7-.03-1.2-.1-1.5-.07-.3-.25-.56-.55-.79s-.68-.35-1.14-.35c-.53,0-1.03,.16-1.51,.47-.48,.31-.93,.78-1.36,1.41v3.61c0,1.02,.02,1.65,.06,1.87,.04,.22,.16,.39,.35,.5s.55,.17,1.06,.17v.5h-4.47v-.5c.5,0,.84-.05,1.04-.15,.19-.1,.31-.25,.36-.46,.05-.21,.07-.85,.07-1.93v-2.64c0-1.03-.02-1.66-.06-1.87-.04-.22-.16-.39-.35-.5-.19-.11-.55-.17-1.06-.17v-.5c.79-.09,1.6-.25,2.43-.5Z"/>
      <path class="cls-2" d="M327.55,376.68v-3.46c0-.94-.01-1.54-.04-1.78s-.13-.43-.31-.56c-.18-.13-.5-.19-.96-.19h-.23v-.5c.87-.02,1.83-.17,2.86-.45h.23v11.9c0,1.03,.02,1.66,.05,1.88,.04,.22,.15,.39,.34,.5s.55,.16,1.06,.16v.5c-1.04,.02-1.97,.12-2.79,.28-.09-.34-.13-.87-.13-1.6-.53,.53-1.08,.93-1.65,1.2-.57,.27-1.15,.4-1.76,.4-1.15,0-2.13-.46-2.97-1.38-.83-.92-1.25-2.04-1.25-3.35,0-1.44,.43-2.61,1.28-3.5,.85-.89,1.86-1.34,3.04-1.34,.6,0,1.16,.11,1.7,.32,.53,.22,1.04,.54,1.51,.97Zm0,.63c-.47-.41-.95-.72-1.43-.92-.48-.21-.96-.31-1.44-.31-.81,0-1.49,.31-2.04,.94s-.82,1.65-.82,3.07,.28,2.5,.84,3.19,1.25,1.03,2.07,1.03c.55,0,1.06-.13,1.52-.39,.47-.26,.9-.65,1.3-1.17v-5.44Z"/>
      <path class="cls-2" d="M340.02,373.46h-.5l.08-3.52h14.22l.08,3.52h-.47c-.17-.97-.39-1.66-.68-2.09-.29-.43-.6-.69-.93-.79s-.9-.15-1.7-.15h-2.36v10.34c0,1.15,.03,1.9,.08,2.26s.2,.63,.44,.8c.24,.17,.68,.26,1.34,.26h.71v.5h-7.31v-.5h.76c.63,0,1.06-.08,1.3-.24,.24-.16,.4-.41,.47-.74,.07-.33,.1-1.11,.1-2.34v-10.34h-2.17c-.94,0-1.58,.05-1.9,.14-.32,.09-.63,.36-.91,.82s-.5,1.15-.65,2.07Z"/>
      <path class="cls-2" d="M363.63,382.97h.4c-.06,1.23-.67,1.85-1.82,1.85-.49,0-.88-.13-1.16-.39s-.47-.64-.56-1.16c-.72,.51-1.38,.9-1.97,1.16s-1.13,.39-1.59,.39c-.6,0-1.11-.17-1.55-.52-.43-.35-.65-.8-.65-1.37,0-.74,.36-1.39,1.09-1.95,.72-.55,1.72-1.09,3-1.62l1.68-.68v-.43c0-.61-.04-1.06-.12-1.33-.08-.27-.29-.52-.62-.73-.33-.22-.77-.32-1.31-.32-1.08,0-1.68,.36-1.81,1.08-.11,.73-.42,1.1-.91,1.1-.44,0-.66-.21-.66-.63s.29-.85,.88-1.32,1.49-.71,2.72-.71c.91,0,1.62,.14,2.13,.43s.84,.62,1,.98c.16,.37,.24,.93,.24,1.69v3.58c0,.84,.04,1.37,.13,1.61,.09,.24,.27,.36,.56,.36,.48,0,.77-.35,.89-1.06Zm-3.13-3.78l-1.18,.48c-1.86,.76-2.79,1.71-2.79,2.85,0,.45,.12,.82,.36,1.1,.24,.28,.55,.42,.93,.42,.34,0,.73-.11,1.18-.33,.45-.22,.95-.56,1.5-1.01v-3.5Z"/>
      <path class="cls-2" d="M371.52,379.57l2.49,3.12c.43,.54,.79,.91,1.08,1.1,.28,.19,.62,.29,1.02,.31v.5h-4.42v-.5c.73,0,1.09-.14,1.09-.42,0-.12-.17-.36-.5-.75l-1.75-2.17-1.62,1.92c-.4,.46-.59,.75-.59,.87,0,.36,.4,.54,1.2,.55v.5h-3.64v-.5c.32,0,.67-.08,1.05-.25s.88-.61,1.48-1.32l1.83-2.16-1.96-2.48c-.55-.71-.98-1.16-1.26-1.36s-.63-.3-1.02-.3v-.5h4.17v.5c-.6,0-.9,.13-.9,.4,0,.12,.13,.34,.4,.66l1.56,1.92,1.44-1.69c.32-.39,.49-.63,.49-.72,0-.38-.4-.57-1.19-.57v-.5h3.51v.5c-.71,.02-1.44,.46-2.19,1.33l-1.75,2Z"/>
      <path class="cls-2" d="M387.26,382.97h.4c-.06,1.23-.67,1.85-1.82,1.85-.49,0-.88-.13-1.16-.39s-.47-.64-.56-1.16c-.72,.51-1.38,.9-1.97,1.16s-1.13,.39-1.59,.39c-.6,0-1.11-.17-1.55-.52-.43-.35-.65-.8-.65-1.37,0-.74,.36-1.39,1.09-1.95,.72-.55,1.72-1.09,3-1.62l1.68-.68v-.43c0-.61-.04-1.06-.12-1.33-.08-.27-.29-.52-.62-.73-.33-.22-.77-.32-1.31-.32-1.08,0-1.68,.36-1.81,1.08-.11,.73-.42,1.1-.91,1.1-.44,0-.66-.21-.66-.63s.29-.85,.88-1.32,1.49-.71,2.72-.71c.91,0,1.62,.14,2.13,.43s.84,.62,1,.98c.16,.37,.24,.93,.24,1.69v3.58c0,.84,.04,1.37,.13,1.61,.09,.24,.27,.36,.56,.36,.48,0,.77-.35,.89-1.06Zm-3.13-3.78l-1.18,.48c-1.86,.76-2.79,1.71-2.79,2.85,0,.45,.12,.82,.36,1.1,.24,.28,.55,.42,.93,.42,.34,0,.73-.11,1.18-.33,.45-.22,.95-.56,1.5-1.01v-3.5Z"/>
      <path class="cls-2" d="M395.08,376.24h-2.67v5.35c0,.82,.04,1.37,.11,1.66,.07,.28,.22,.51,.46,.69s.48,.26,.75,.26c.52,0,.97-.3,1.35-.89l.35,.21c-.22,.48-.55,.83-.99,1.08-.44,.24-.88,.36-1.32,.36-.52,0-.98-.15-1.37-.46-.39-.31-.64-.67-.73-1.08-.1-.41-.15-1.13-.15-2.16v-5.02h-1.29v-.5c.59-.01,1.12-.26,1.59-.75,.47-.48,.77-1.16,.9-2.03h.35v2.78h2.67v.5Z"/>
      <path class="cls-2" d="M400.35,375.38v6.17c0,.94,.01,1.54,.04,1.78,.03,.25,.13,.43,.31,.56,.18,.13,.5,.19,.96,.19h.23v.5h-4.77v-.5h.37c.51,0,.84-.07,1-.22,.16-.15,.25-.32,.27-.53,.02-.21,.04-.8,.04-1.79v-2.68c0-1.04-.05-1.67-.15-1.9-.1-.23-.23-.37-.39-.43s-.45-.09-.85-.09h-.29v-.5c1.28-.13,2.28-.32,2.98-.57h.24Zm-2.09-4.52c0-.31,.11-.58,.33-.8,.22-.22,.48-.34,.79-.34s.57,.11,.79,.34c.22,.22,.32,.49,.32,.8s-.11,.59-.32,.81c-.22,.22-.48,.34-.79,.34s-.57-.11-.79-.34c-.22-.22-.33-.49-.33-.81Z"/>
      <path class="cls-2" d="M404.47,380.15c0-1.35,.45-2.49,1.36-3.4,.91-.91,2.02-1.37,3.35-1.37s2.45,.46,3.36,1.37c.91,.91,1.36,2.05,1.36,3.39,0,1.49-.46,2.66-1.38,3.52-.92,.85-2.04,1.28-3.34,1.28s-2.42-.43-3.33-1.3c-.92-.87-1.38-2.03-1.38-3.5Zm1.79,.05c0,1.57,.26,2.67,.77,3.3,.51,.63,1.23,.95,2.15,.95s1.67-.31,2.17-.95c.5-.63,.75-1.73,.75-3.3s-.25-2.67-.75-3.33c-.5-.66-1.22-.99-2.17-.99s-1.67,.33-2.17,.99c-.5,.66-.75,1.77-.75,3.33Z"/>
      <path class="cls-2" d="M419.09,375.38h.29c.17,.45,.26,1.06,.28,1.83,.52-.61,1.06-1.07,1.63-1.37,.57-.3,1.16-.45,1.78-.45,.71,0,1.29,.15,1.74,.44s.74,.66,.87,1.09c.13,.43,.19,1.05,.19,1.88v2.77c0,1.02,.02,1.65,.05,1.87,.04,.22,.15,.39,.34,.5s.54,.17,1.05,.17v.5h-4.53v-.5h.21c.52,0,.86-.08,1.02-.23,.16-.15,.25-.33,.27-.53,.02-.2,.03-.8,.03-1.78v-2.85c0-.7-.03-1.2-.1-1.5-.07-.3-.25-.56-.55-.79s-.68-.35-1.14-.35c-.53,0-1.03,.16-1.51,.47-.48,.31-.93,.78-1.36,1.41v3.61c0,1.02,.02,1.65,.06,1.87,.04,.22,.16,.39,.35,.5s.55,.17,1.06,.17v.5h-4.47v-.5c.5,0,.84-.05,1.04-.15,.19-.1,.31-.25,.36-.46,.05-.21,.07-.85,.07-1.93v-2.64c0-1.03-.02-1.66-.06-1.87-.04-.22-.16-.39-.35-.5-.19-.11-.55-.17-1.06-.17v-.5c.79-.09,1.6-.25,2.43-.5Z"/>
    </g>
    <g>
      <path class="cls-2" d="M261.62,293.94c2.24-4.91,2.7-10.4,1.77-15.72-.23-1.35-.35-2.75-.35-4.2,0-7.26,2.83-13.23,8.49-17.9,5.66-4.67,12.83-7,21.5-7h26.59c-3.07-3.32-4.96-7.77-4.96-12.64,0-5.47,2.37-10.4,6.14-13.81h-27.78c-18.02,0-32.77,4.62-44.28,13.86-11.51,9.24-17.26,21.32-17.26,36.22,0,.5,.02,.99,.04,1.48l-.02-.03v.74c-.02,9.49-6,18.01-14.98,21.06-4.48,1.52-9.49,2.34-14.59,2.34h-36.64v-37.4h-31.75v63.66h68.39c17.05,0,33.44-3.53,47.99-15.68v-.02c5.24-4.38,9.13-9.34,11.68-14.96Z"/>
      <g>
        <path class="cls-2" d="M243.17,234.24c-10.66-7.48-24.91-11.78-41.22-11.78h-48.24l-20.15,26.56h68.39c10.76,0,19.94,4.17,25.27,10.84,2.38-9.99,7.69-18.53,15.95-25.62Z"/>
        <polygon class="cls-2" points="401.69 237.77 381.39 265.94 404.69 298.21 424.42 324.67 462.84 324.67 401.69 237.77"/>
        <path class="cls-2" d="M293.03,298.36c-8.68,0-15.84-2.26-21.5-6.79-.95-.76-1.82-1.57-2.62-2.41-2.53,9.33-7.81,17.35-15.77,23.96,9.48,6.68,20.76,10.46,33.82,11.34l18.81-26.1h-12.75Z"/>
      </g>
    </g>
    <g>
      <path class="cls-3" d="M364.65,328.18c-7.54,0-13.68-6.14-13.68-13.68s6.14-13.68,13.68-13.68,13.68,6.14,13.68,13.68-6.14,13.68-13.68,13.68Zm0-20.34c-3.67,0-6.66,2.99-6.66,6.66s2.99,6.66,6.66,6.66,6.66-2.99,6.66-6.66-2.99-6.66-6.66-6.66Z"/>
      <path class="cls-3" d="M333.31,250.17c-7.54,0-13.68-6.14-13.68-13.68s6.14-13.68,13.68-13.68,13.68,6.14,13.68,13.68-6.14,13.68-13.68,13.68Zm0-20.34c-3.67,0-6.66,2.99-6.66,6.66s2.99,6.66,6.66,6.66,6.66-2.99,6.66-6.66-2.99-6.66-6.66-6.66Z"/>
      <path class="cls-3" d="M390.55,226.07c-3.96-2.45-7.88-3.68-11.74-3.68s-7.69,1.23-11.74,3.68c-3.68,2.26-6.56,4.91-8.63,7.92l-32.92,45.67,.02,.02-32.42,44.99h39.15s19.17-26.31,19.17-26.31l26.8-36.78h0s20.33-28.21,20.33-28.21c-2.11-2.84-4.78-5.27-8.03-7.29Z"/>
    </g>
    <g>
      <path class="cls-2" d="M411.48,214.08h-3.34v-1.81h8.76v1.81h-3.34v8.73h-2.08v-8.73Z"/>
      <path class="cls-2" d="M418.61,212.27h1.85l3.45,6.26,3.37-6.26h1.85v10.53h-2.03v-6.67l-2.21,4c-.15,.27-.3,.46-.46,.58-.16,.12-.33,.17-.53,.17h-.57l-2.68-4.75v6.67h-2.03v-10.53Z"/>
    </g>
  </g>
</svg>