<?xml version="1.0" encoding="UTF-8"?>
<svg id="Layer_1" data-name="Layer 1" xmlns="http://www.w3.org/2000/svg" viewBox="80 100 400 300"
>
  <defs>
    <style>
      .cls-1, .cls-2, .cls-3, .cls-4 {
        fill: #003462;
      }

      .cls-5 {
        fill: #9cb92d;
      }

      .cls-2 {
        font-family: Baskerville, Baskerville;
        font-size: 22.04px;
        stroke: #003462;
        stroke-miterlimit: 10;
        stroke-width: .68px;
      }

      .cls-3 {
        font-family: Baskerville-Bold, Baskerville;
        font-size: 24.46px;
      }

      .cls-3, .cls-4 {
        font-weight: 700;
      }

      .cls-4 {
        font-family: BaiJamjuree-Bold, 'Bai Jamjuree';
        font-size: 14.98px;
      }
    </style>
  </defs>
  <text class="cls-3" transform="translate(119.58 345.81)"><tspan x="0" y="0">DEBICRED ACUMEN LLP</tspan></text>
  <text class="cls-2" transform="translate(157.76 370.93)"><tspan x="0" y="0">Accounting and Taxation</tspan></text>
  <g>
    <path class="cls-1" d="M247.06,280.69c2.22-4.89,2.69-10.35,1.77-15.64-.23-1.34-.35-2.73-.35-4.18,0-7.23,2.82-13.17,8.45-17.81,5.63-4.65,12.77-6.97,21.4-6.97h26.47c-3.06-3.31-4.93-7.73-4.93-12.58,0-5.45,2.36-10.35,6.11-13.75h-27.65c-17.93,0-32.62,4.6-44.08,13.8-11.45,9.2-17.18,21.22-17.18,36.05,0,.5,.02,.98,.04,1.48l-.02-.03v.73c-.02,9.44-5.97,17.93-14.91,20.96-4.46,1.51-9.45,2.33-14.52,2.33h-36.47v-37.23h-31.61v63.37h68.08c16.98,0,33.29-3.52,47.77-15.6v-.02c5.21-4.36,9.09-9.3,11.63-14.89Z"/>
    <g>
      <path class="cls-1" d="M228.69,221.27c-10.61-7.44-24.79-11.72-41.03-11.72h-48.02l-20.06,26.44h68.08c10.71,0,19.85,4.15,25.16,10.79,2.37-9.94,7.66-18.44,15.88-25.5Z"/>
      <polygon class="cls-1" points="386.49 224.78 366.28 252.82 389.47 284.95 409.11 311.28 447.35 311.28 386.49 224.78"/>
      <path class="cls-1" d="M278.33,285.09c-8.64,0-15.77-2.25-21.4-6.76-.95-.76-1.81-1.56-2.6-2.4-2.52,9.29-7.77,17.27-15.69,23.85,9.44,6.65,20.66,10.42,33.66,11.29l18.72-25.98h-12.69Z"/>
    </g>
  </g>
  <g>
    <path class="cls-5" d="M349.62,314.77c-7.51,0-13.62-6.11-13.62-13.62s6.11-13.62,13.62-13.62,13.62,6.11,13.62,13.62-6.11,13.62-13.62,13.62Zm0-20.25c-3.65,0-6.63,2.97-6.63,6.63s2.97,6.63,6.63,6.63,6.63-2.97,6.63-6.63-2.97-6.63-6.63-6.63Z"/>
    <path class="cls-5" d="M318.42,237.12c-7.51,0-13.62-6.11-13.62-13.62s6.11-13.62,13.62-13.62,13.62,6.11,13.62,13.62-6.11,13.62-13.62,13.62Zm0-20.25c-3.65,0-6.63,2.97-6.63,6.63s2.97,6.63,6.63,6.63,6.63-2.97,6.63-6.63-2.97-6.63-6.63-6.63Z"/>
    <path class="cls-5" d="M375.39,213.13c-3.94-2.44-7.84-3.66-11.69-3.66s-7.65,1.22-11.69,3.66c-3.66,2.25-6.53,4.88-8.59,7.89l-32.77,45.46,.02,.02-32.27,44.78h38.97s19.08-26.19,19.08-26.19l26.68-36.61h0s20.24-28.08,20.24-28.08c-2.1-2.83-4.75-5.25-7.99-7.26Z"/>
  </g>
  <text class="cls-4" transform="translate(392.73 209.88)"><tspan x="0" y="0">TM</tspan></text>
</svg>